<mxfile host="app.diagrams.net" modified="2021-01-07T07:43:01.944Z" agent="5.0 (Macintosh; Intel Mac OS X 10_15_6) AppleWebKit/605.1.15 (KHTML, like Gecko) Version/14.0.2 Safari/605.1.15" etag="ROBl1ao9wxBxbcIVXbFs" version="14.1.8" type="github">
  <diagram id="qKItS9ODfsw4xPVkSacJ" name="Page-1">
    <mxGraphModel dx="946" dy="1745" grid="1" gridSize="10" guides="1" tooltips="1" connect="1" arrows="1" fold="1" page="1" pageScale="1" pageWidth="850" pageHeight="1100" math="0" shadow="0">
      <root>
        <mxCell id="0" />
        <mxCell id="1" parent="0" />
        <mxCell id="k5iY01TgsLt5zAKxNToZ-22" value="&lt;pre&gt;&lt;font face=&quot;Helvetica&quot;&gt;MASTER&lt;/font&gt;&lt;/pre&gt;&lt;pre&gt;&lt;font face=&quot;Helvetica&quot;&gt;&lt;br&gt;&lt;/font&gt;&lt;/pre&gt;&lt;pre&gt;&lt;font face=&quot;Helvetica&quot;&gt;&lt;br&gt;&lt;/font&gt;&lt;/pre&gt;&lt;pre&gt;&lt;font face=&quot;Helvetica&quot;&gt;&lt;br&gt;&lt;/font&gt;&lt;/pre&gt;&lt;pre&gt;&lt;font face=&quot;Helvetica&quot;&gt;&lt;br&gt;&lt;/font&gt;&lt;/pre&gt;&lt;pre&gt;&lt;font face=&quot;Helvetica&quot;&gt;&lt;br&gt;&lt;/font&gt;&lt;/pre&gt;&lt;pre&gt;&lt;font face=&quot;Helvetica&quot;&gt;&lt;br&gt;&lt;/font&gt;&lt;/pre&gt;&lt;pre&gt;&lt;font face=&quot;Helvetica&quot;&gt;&lt;br&gt;&lt;/font&gt;&lt;/pre&gt;&lt;pre&gt;&lt;font face=&quot;Helvetica&quot;&gt;&lt;br&gt;&lt;/font&gt;&lt;/pre&gt;&lt;pre&gt;&lt;font face=&quot;Helvetica&quot;&gt;&lt;br&gt;&lt;/font&gt;&lt;/pre&gt;&lt;pre&gt;&lt;font face=&quot;Helvetica&quot;&gt;&lt;br&gt;&lt;/font&gt;&lt;/pre&gt;&lt;pre&gt;&lt;font face=&quot;Helvetica&quot;&gt;&lt;br&gt;&lt;/font&gt;&lt;/pre&gt;&lt;pre&gt;&lt;font face=&quot;Helvetica&quot;&gt;&lt;br&gt;&lt;/font&gt;&lt;/pre&gt;&lt;pre&gt;&lt;font face=&quot;Helvetica&quot;&gt;&lt;br&gt;&lt;/font&gt;&lt;/pre&gt;&lt;pre&gt;&lt;font face=&quot;Helvetica&quot;&gt;&lt;br&gt;&lt;/font&gt;&lt;/pre&gt;&lt;pre&gt;&lt;br&gt;&lt;/pre&gt;" style="ellipse;whiteSpace=wrap;html=1;aspect=fixed;gradientColor=#ffffff;fillColor=none;dashed=1;shadow=0;sketch=0;" parent="1" vertex="1">
          <mxGeometry x="73" y="-450" width="372" height="372" as="geometry" />
        </mxCell>
        <mxCell id="k5iY01TgsLt5zAKxNToZ-19" value="" style="group" parent="1" vertex="1" connectable="0">
          <mxGeometry x="330" y="-370" width="110" height="330" as="geometry" />
        </mxCell>
        <mxCell id="k5iY01TgsLt5zAKxNToZ-20" value="&lt;br&gt;&lt;br&gt;okd-cp3&lt;br&gt;&lt;br&gt;CPU=4&lt;br&gt;RAM=8Gb&lt;br&gt;HDD=50Gb&lt;br&gt;10.1.8.127" style="aspect=fixed;perimeter=ellipsePerimeter;html=1;align=left;shadow=0;dashed=0;spacingTop=3;image;image=img/lib/active_directory/generic_server.svg;" parent="k5iY01TgsLt5zAKxNToZ-19" vertex="1">
          <mxGeometry width="56" height="100" as="geometry" />
        </mxCell>
        <mxCell id="k5iY01TgsLt5zAKxNToZ-21" value="" style="aspect=fixed;html=1;points=[];align=center;image;fontSize=12;image=img/lib/mscae/OpenShift.svg;" parent="k5iY01TgsLt5zAKxNToZ-19" vertex="1">
          <mxGeometry x="26" y="70" width="50" height="46" as="geometry" />
        </mxCell>
        <mxCell id="k5iY01TgsLt5zAKxNToZ-9" value="" style="group" parent="1" vertex="1" connectable="0">
          <mxGeometry x="120" y="-370" width="76" height="116" as="geometry" />
        </mxCell>
        <mxCell id="k5iY01TgsLt5zAKxNToZ-5" value="&lt;br&gt;&lt;br&gt;okd-cp1&lt;br&gt;&lt;br&gt;CPU=4&lt;br&gt;RAM=8Gb&lt;br&gt;HDD=50Gb&lt;br&gt;10.1.8.125" style="aspect=fixed;perimeter=ellipsePerimeter;html=1;align=left;shadow=0;dashed=0;spacingTop=3;image;image=img/lib/active_directory/generic_server.svg;" parent="k5iY01TgsLt5zAKxNToZ-9" vertex="1">
          <mxGeometry width="56" height="100" as="geometry" />
        </mxCell>
        <mxCell id="k5iY01TgsLt5zAKxNToZ-6" value="" style="aspect=fixed;html=1;points=[];align=center;image;fontSize=12;image=img/lib/mscae/OpenShift.svg;" parent="k5iY01TgsLt5zAKxNToZ-9" vertex="1">
          <mxGeometry x="26" y="70" width="50" height="46" as="geometry" />
        </mxCell>
        <mxCell id="k5iY01TgsLt5zAKxNToZ-10" value="" style="group" parent="1" vertex="1" connectable="0">
          <mxGeometry x="220" y="-370" width="76" height="116" as="geometry" />
        </mxCell>
        <mxCell id="k5iY01TgsLt5zAKxNToZ-11" value="&lt;br&gt;&lt;br&gt;okd-cp2&lt;br&gt;&lt;br&gt;CPU=4&lt;br&gt;RAM=8Gb&lt;br&gt;HDD=50Gb&lt;br&gt;10.1.8.126" style="aspect=fixed;perimeter=ellipsePerimeter;html=1;align=left;shadow=0;dashed=0;spacingTop=3;image;image=img/lib/active_directory/generic_server.svg;" parent="k5iY01TgsLt5zAKxNToZ-10" vertex="1">
          <mxGeometry width="56" height="100" as="geometry" />
        </mxCell>
        <mxCell id="k5iY01TgsLt5zAKxNToZ-12" value="" style="aspect=fixed;html=1;points=[];align=center;image;fontSize=12;image=img/lib/mscae/OpenShift.svg;" parent="k5iY01TgsLt5zAKxNToZ-10" vertex="1">
          <mxGeometry x="26" y="70" width="50" height="46" as="geometry" />
        </mxCell>
        <mxCell id="k5iY01TgsLt5zAKxNToZ-24" value="&lt;pre&gt;&lt;font face=&quot;Helvetica&quot;&gt;WORKER&lt;br&gt;&lt;br&gt;&lt;br&gt;&lt;br&gt;&lt;br&gt;&lt;br&gt;&lt;br&gt;&lt;br&gt;&lt;br&gt;&lt;br&gt;&lt;br&gt;&lt;br&gt;&lt;br&gt;&lt;br&gt;&lt;br&gt;&lt;br&gt;&lt;br&gt;&lt;br&gt;&lt;br&gt;&lt;br&gt;&lt;br&gt;&lt;/font&gt;&lt;/pre&gt;&lt;pre&gt;&lt;font face=&quot;Helvetica&quot;&gt;&lt;br&gt;&lt;/font&gt;&lt;/pre&gt;" style="ellipse;whiteSpace=wrap;html=1;aspect=fixed;gradientColor=#ffffff;fillColor=none;dashed=1;shadow=0;sketch=0;" parent="1" vertex="1">
          <mxGeometry x="440" y="-370" width="290" height="290" as="geometry" />
        </mxCell>
        <mxCell id="k5iY01TgsLt5zAKxNToZ-25" value="&lt;br&gt;BASTION&lt;br&gt;&lt;br&gt;okd-bootstrap&lt;br&gt;&lt;br&gt;CPU=4&lt;br&gt;RAM=10Gb&lt;br&gt;HDD=50Gb&lt;br&gt;10.1.8.120" style="aspect=fixed;perimeter=ellipsePerimeter;html=1;align=left;shadow=0;dashed=0;spacingTop=3;image;image=img/lib/active_directory/generic_server.svg;" parent="1" vertex="1">
          <mxGeometry x="678" y="-608" width="56" height="100" as="geometry" />
        </mxCell>
        <mxCell id="k5iY01TgsLt5zAKxNToZ-26" value="" style="aspect=fixed;html=1;points=[];align=center;image;fontSize=12;image=img/lib/mscae/OpenShift.svg;" parent="1" vertex="1">
          <mxGeometry x="704" y="-538" width="50" height="46" as="geometry" />
        </mxCell>
        <mxCell id="k5iY01TgsLt5zAKxNToZ-27" value="" style="group" parent="1" vertex="1" connectable="0">
          <mxGeometry x="502" y="-330" width="76" height="116" as="geometry" />
        </mxCell>
        <mxCell id="k5iY01TgsLt5zAKxNToZ-28" value="&lt;br&gt;&lt;br&gt;okd-wrk1&lt;br&gt;&lt;br&gt;CPU=4&lt;br&gt;RAM=8Gb&lt;br&gt;HDD=50Gb&lt;br&gt;10.1.8.128" style="aspect=fixed;perimeter=ellipsePerimeter;html=1;align=left;shadow=0;dashed=0;spacingTop=3;image;image=img/lib/active_directory/generic_server.svg;" parent="k5iY01TgsLt5zAKxNToZ-27" vertex="1">
          <mxGeometry width="56" height="100" as="geometry" />
        </mxCell>
        <mxCell id="k5iY01TgsLt5zAKxNToZ-29" value="" style="aspect=fixed;html=1;points=[];align=center;image;fontSize=12;image=img/lib/mscae/OpenShift.svg;" parent="k5iY01TgsLt5zAKxNToZ-27" vertex="1">
          <mxGeometry x="26" y="70" width="50" height="46" as="geometry" />
        </mxCell>
        <mxCell id="k5iY01TgsLt5zAKxNToZ-30" value="" style="group" parent="1" vertex="1" connectable="0">
          <mxGeometry x="602" y="-330" width="76" height="116" as="geometry" />
        </mxCell>
        <mxCell id="k5iY01TgsLt5zAKxNToZ-31" value="&lt;br&gt;&lt;br&gt;okd-wrk2&lt;br&gt;&lt;br&gt;CPU=4&lt;br&gt;RAM=8Gb&lt;br&gt;HDD=50Gb&lt;br&gt;10.1.8.129" style="aspect=fixed;perimeter=ellipsePerimeter;html=1;align=left;shadow=0;dashed=0;spacingTop=3;image;image=img/lib/active_directory/generic_server.svg;" parent="k5iY01TgsLt5zAKxNToZ-30" vertex="1">
          <mxGeometry width="56" height="100" as="geometry" />
        </mxCell>
        <mxCell id="k5iY01TgsLt5zAKxNToZ-32" value="" style="aspect=fixed;html=1;points=[];align=center;image;fontSize=12;image=img/lib/mscae/OpenShift.svg;" parent="k5iY01TgsLt5zAKxNToZ-30" vertex="1">
          <mxGeometry x="26" y="70" width="50" height="46" as="geometry" />
        </mxCell>
      </root>
    </mxGraphModel>
  </diagram>
</mxfile>
